<svg xmlns="http://www.w3.org/2000/svg" width="150" height="26" viewBox="0 0 150 26" fill="none"><g clip-path="url(#clip0_418_411)"><path d="M6.48873 2.3532L10.3237 0.138563C10.4329 0.0755573 10.5683 0.0755573 10.6775 0.138563L20.7846 5.97391C20.8938 6.03691 20.9611 6.15347 20.9621 6.27948L20.9758 10.2929C20.9758 10.42 20.9085 10.5376 20.7983 10.6006L16.9686 12.8121C16.7334 12.9486 16.4383 12.7785 16.4373 12.5065L16.4247 8.9047C16.4247 8.77869 16.3564 8.66213 16.2472 8.59913L6.48873 2.96645C6.25246 2.82994 6.25246 2.48971 6.48873 2.3532Z" fill="#010101"></path><path d="M4.01134 20.5322L0.177465 18.3186C0.0672057 18.2556 0 18.139 0 18.012V6.34127C0 6.21526 0.0672057 6.0987 0.176415 6.03465L3.64591 4.01533C3.75617 3.95127 3.89163 3.95127 4.00084 4.01533L7.83051 6.22681C8.06573 6.36333 8.06678 6.7025 7.83156 6.84007L4.7191 8.65147C4.60989 8.71447 4.54268 8.83103 4.54268 8.95809V20.2266C4.54268 20.4996 4.24761 20.6697 4.01134 20.5332V20.5322Z" fill="#010101"></path><path d="M20.9758 13.5838V18.011C20.9758 18.1381 20.9086 18.2546 20.7984 18.3176L10.6912 24.153C10.582 24.216 10.4476 24.216 10.3384 24.153L6.85527 22.1578C6.74501 22.0948 6.67676 21.9772 6.67676 21.8501V17.4282C6.67676 17.1562 6.97078 16.9861 7.20705 17.1205L10.3321 18.9109C10.4413 18.9739 10.5757 18.9729 10.6849 18.9109L20.4434 13.2762C20.6797 13.1396 20.9748 13.3098 20.9748 13.5828L20.9758 13.5838Z" fill="#010101"></path><path d="M53.7507 6.17872H49.8359C49.6658 6.17872 49.5293 6.31628 49.5293 6.4864V13.9326C49.5293 14.885 49.3749 15.682 49.0652 16.3226C48.7554 16.9442 48.3301 17.4105 47.7883 17.7213C47.2464 18.0122 46.6269 18.1592 45.9306 18.1592C44.9236 18.1592 44.1402 17.8578 43.5795 17.2561C43.0377 16.6345 42.7667 15.6715 42.7667 14.3705V6.48745C42.7667 6.31733 42.6292 6.17977 42.4601 6.17977H39.6165C39.5934 6.17557 39.5703 6.17347 39.5472 6.17347H33.883V5.85845C33.883 5.10028 34.0573 4.53743 34.4059 4.1678C34.7734 3.77927 35.2869 3.585 35.9443 3.585C36.2929 3.585 36.6216 3.63331 36.9314 3.73097C37.1225 3.79187 37.3105 3.87063 37.4732 3.95674C37.636 4.04284 37.8376 3.96094 37.8996 3.78662L38.8782 1.07844C38.9287 0.937729 38.8719 0.780216 38.7428 0.70566C38.3606 0.484091 37.9122 0.317127 37.3955 0.203717C36.7959 0.0682558 36.1669 0 35.5085 0C33.5742 0 32.0842 0.534495 31.0383 1.60349C29.9934 2.65252 29.4705 4.06174 29.4705 5.83009V6.17347H27.4249C27.2244 6.17347 27.0605 6.31103 27.0605 6.48115V9.36259C27.0605 9.53271 27.2233 9.67027 27.4249 9.67027H29.4705V21.552C29.4705 21.7221 29.6081 21.8597 29.7771 21.8597H33.6908C33.8599 21.8597 33.9974 21.7221 33.9974 21.552V9.67027H38.2377V15.0394C38.2377 16.6523 38.5181 17.9838 39.0799 19.0329C39.6417 20.063 40.425 20.8306 41.431 21.3357C42.4569 21.8408 43.6183 22.0939 44.9142 22.0939C46.1144 22.0939 47.217 21.8219 48.223 21.2769C48.8215 20.9482 49.334 20.5282 49.7614 20.0199V21.552C49.7614 21.7221 49.8989 21.8597 50.068 21.8597H53.7507C53.9208 21.8597 54.0573 21.7221 54.0573 21.552V6.48745C54.0573 6.31733 53.9197 6.17977 53.7507 6.17977V6.17872Z" fill="#010101"></path><path d="M66.9318 13.6397C66.3899 13.3089 65.7798 13.0569 65.1025 12.8815C64.4263 12.7072 63.7479 12.5801 63.0706 12.5024C62.4132 12.4048 61.8031 12.2987 61.2414 12.1821C60.6806 12.0656 60.2249 11.9102 59.8773 11.7159C59.5476 11.5216 59.3837 11.2308 59.3837 10.8412C59.3837 10.4138 59.6158 10.0641 60.081 9.79213C60.5451 9.52016 61.2813 9.3847 62.2872 9.3847C63.0034 9.3847 63.7385 9.47185 64.4935 9.64722C65.1708 9.78268 65.8397 10.0305 66.5023 10.3896C66.6588 10.4736 66.852 10.4117 66.9276 10.251L68.1772 7.57329C68.2454 7.42733 68.1898 7.25091 68.0491 7.17426C67.3581 6.79728 66.5222 6.5043 65.5394 6.29743C64.4368 6.06431 63.3531 5.94775 62.2883 5.94775C60.7793 5.94775 59.4825 6.17142 58.3988 6.61771C57.3151 7.04615 56.4834 7.6384 55.9027 8.39656C55.3419 9.15473 55.0605 10.0284 55.0605 11.0197C55.0605 11.9133 55.2254 12.6421 55.5541 13.206C55.9027 13.7688 56.3574 14.2162 56.9181 14.5469C57.4799 14.8777 58.0984 15.1297 58.7757 15.3051C59.453 15.4605 60.1209 15.5865 60.7783 15.6842C61.4556 15.7818 62.0751 15.8784 62.6359 15.9751C63.1966 16.0727 63.6419 16.2187 63.9716 16.4129C64.3202 16.5883 64.4945 16.8603 64.4945 17.2289C64.4945 17.6762 64.2719 18.0259 63.8267 18.2779C63.4014 18.5299 62.6653 18.657 61.6204 18.657C60.6722 18.657 59.7051 18.5215 58.718 18.2495C57.8769 17.9965 57.1313 17.6846 56.4802 17.3139C56.3238 17.2247 56.1253 17.2877 56.0497 17.4515L54.7959 20.1639C54.7297 20.3067 54.7833 20.4757 54.9167 20.5576C55.6045 20.9777 56.4939 21.3358 57.5849 21.6308C58.823 21.9417 60.1104 22.0971 61.4451 22.0971V22.095C63.0118 22.095 64.3381 21.8818 65.4218 21.4544C66.5243 21.027 67.3665 20.4442 67.9472 19.706C68.5279 18.9489 68.8177 18.0836 68.8177 17.1123C68.8177 16.2187 68.6434 15.4994 68.2948 14.9554C67.9462 14.3915 67.4915 13.9547 66.9307 13.6439L66.9318 13.6397Z" fill="#010101"></path><path d="M84.4971 9.73655C83.7809 8.51214 82.8043 7.57967 81.5652 6.93806C80.3461 6.27756 79.0303 5.94678 77.4436 5.94678C75.857 5.94678 74.4341 6.29646 73.1771 6.99582C71.9191 7.67522 70.9226 8.62765 70.1875 9.85206C69.4714 11.0565 69.1133 12.4657 69.1133 14.0199C69.1133 15.574 69.4808 16.9643 70.2159 18.1877C70.9509 19.3921 71.9863 20.3445 73.321 21.0439C74.6756 21.7433 76.2423 22.0929 78.0233 22.0929V22.095C79.4367 22.095 80.6853 21.8808 81.7679 21.4545C82.756 21.0471 83.5909 20.4853 84.2734 19.7712C84.3847 19.6546 84.3847 19.4698 84.2755 19.3501L82.2646 17.1607C82.1512 17.0378 81.9622 17.0294 81.8351 17.1397C81.372 17.544 80.8659 17.8548 80.3156 18.0722C79.6961 18.3242 78.9705 18.4512 78.1388 18.4512C77.2105 18.4512 76.3978 18.2864 75.7005 17.9556C75.0232 17.6059 74.4908 17.1103 74.1044 16.4697C73.9038 16.1106 73.761 15.721 73.6696 15.3031H85.2048C85.3624 15.3031 85.4947 15.1823 85.5094 15.0248C85.5199 14.9166 85.5304 14.8043 85.5398 14.6909C85.5598 14.4577 85.5692 14.254 85.5692 14.0787C85.5692 12.388 85.2111 10.941 84.495 9.7355L84.4971 9.73655ZM75.4117 9.91191C76.0113 9.56223 76.6991 9.38687 77.473 9.38687C78.247 9.38687 78.9243 9.56223 79.505 9.91191C80.0857 10.2416 80.5404 10.7089 80.869 11.3106C81.0874 11.7097 81.2313 12.157 81.3048 12.6505H73.6171C73.6927 12.1654 73.8355 11.7275 74.0476 11.339C74.3774 10.7173 74.831 10.2416 75.4117 9.91086V9.91191Z" fill="#010101"></path></g><path d="M91.5876 21.2012V4.40117H98.8356C100.708 4.40117 102.156 4.77717 103.18 5.52917C104.22 6.28117 104.74 7.34517 104.74 8.72117C104.74 9.63317 104.524 10.4012 104.092 11.0252C103.676 11.6492 103.1 12.1212 102.364 12.4412C101.644 12.7612 100.852 12.9212 99.9876 12.9212L100.396 12.3452C101.468 12.3452 102.388 12.5132 103.156 12.8492C103.94 13.1692 104.548 13.6572 104.98 14.3132C105.412 14.9532 105.628 15.7532 105.628 16.7132C105.628 18.1372 105.1 19.2412 104.044 20.0252C103.004 20.8092 101.428 21.2012 99.3156 21.2012H91.5876ZM93.3636 19.7372H99.2916C100.764 19.7372 101.892 19.4892 102.676 18.9932C103.46 18.4812 103.852 17.6732 103.852 16.5692C103.852 15.4812 103.46 14.6892 102.676 14.1932C101.892 13.6812 100.764 13.4252 99.2916 13.4252H93.1716V11.9612H98.7156C100.06 11.9612 101.1 11.7052 101.836 11.1932C102.588 10.6812 102.964 9.92117 102.964 8.91317C102.964 7.88917 102.588 7.12917 101.836 6.63317C101.1 6.12117 100.06 5.86517 98.7156 5.86517H93.3636V19.7372ZM109.321 21.2012V3.39317H111.025V21.2012H109.321ZM120.903 21.3212C119.687 21.3212 118.591 21.0492 117.615 20.5052C116.655 19.9452 115.895 19.1852 115.335 18.2252C114.775 17.2492 114.495 16.1372 114.495 14.8892C114.495 13.6252 114.775 12.5132 115.335 11.5532C115.895 10.5932 116.655 9.84117 117.615 9.29717C118.575 8.75317 119.671 8.48117 120.903 8.48117C122.151 8.48117 123.255 8.75317 124.215 9.29717C125.191 9.84117 125.951 10.5932 126.495 11.5532C127.055 12.5132 127.335 13.6252 127.335 14.8892C127.335 16.1372 127.055 17.2492 126.495 18.2252C125.951 19.1852 125.191 19.9452 124.215 20.5052C123.239 21.0492 122.135 21.3212 120.903 21.3212ZM120.903 19.8092C121.815 19.8092 122.623 19.6092 123.327 19.2092C124.031 18.7932 124.583 18.2172 124.983 17.4812C125.399 16.7292 125.607 15.8652 125.607 14.8892C125.607 13.8972 125.399 13.0332 124.983 12.2972C124.583 11.5612 124.031 10.9932 123.327 10.5932C122.623 10.1772 121.823 9.96917 120.927 9.96917C120.031 9.96917 119.231 10.1772 118.527 10.5932C117.823 10.9932 117.263 11.5612 116.847 12.2972C116.431 13.0332 116.223 13.8972 116.223 14.8892C116.223 15.8652 116.431 16.7292 116.847 17.4812C117.263 18.2172 117.823 18.7932 118.527 19.2092C119.231 19.6092 120.023 19.8092 120.903 19.8092ZM136.19 25.9772C135.038 25.9772 133.934 25.8092 132.878 25.4732C131.822 25.1372 130.966 24.6572 130.31 24.0332L131.174 22.7372C131.766 23.2652 132.494 23.6812 133.358 23.9852C134.238 24.3052 135.166 24.4652 136.142 24.4652C137.742 24.4652 138.918 24.0892 139.67 23.3372C140.422 22.6012 140.798 21.4492 140.798 19.8812V16.7372L141.038 14.5772L140.87 12.4172V8.60117H142.502V19.6652C142.502 21.8412 141.966 23.4332 140.894 24.4412C139.838 25.4652 138.27 25.9772 136.19 25.9772ZM135.878 20.7212C134.678 20.7212 133.598 20.4652 132.638 19.9532C131.678 19.4252 130.918 18.6972 130.358 17.7692C129.814 16.8412 129.542 15.7772 129.542 14.5772C129.542 13.3772 129.814 12.3212 130.358 11.4092C130.918 10.4812 131.678 9.76117 132.638 9.24917C133.598 8.73717 134.678 8.48117 135.878 8.48117C136.998 8.48117 138.006 8.71317 138.902 9.17717C139.798 9.64117 140.51 10.3292 141.038 11.2412C141.566 12.1532 141.83 13.2652 141.83 14.5772C141.83 15.8892 141.566 17.0012 141.038 17.9132C140.51 18.8252 139.798 19.5212 138.902 20.0012C138.006 20.4812 136.998 20.7212 135.878 20.7212ZM136.046 19.2092C136.974 19.2092 137.798 19.0172 138.518 18.6332C139.238 18.2332 139.806 17.6892 140.222 17.0012C140.638 16.2972 140.846 15.4892 140.846 14.5772C140.846 13.6652 140.638 12.8652 140.222 12.1772C139.806 11.4892 139.238 10.9532 138.518 10.5692C137.798 10.1692 136.974 9.96917 136.046 9.96917C135.134 9.96917 134.31 10.1692 133.574 10.5692C132.854 10.9532 132.286 11.4892 131.87 12.1772C131.47 12.8652 131.27 13.6652 131.27 14.5772C131.27 15.4892 131.47 16.2972 131.87 17.0012C132.286 17.6892 132.854 18.2332 133.574 18.6332C134.31 19.0172 135.134 19.2092 136.046 19.2092Z" fill="black"></path><defs><clipPath id="clip0_418_411"><rect width="85.5707" height="24.2014" fill="white"></rect></clipPath></defs></svg>